<svg width="14" height="14" viewBox="0 0 16 16" fill="none" xmlns="http://www.w3.org/2000/svg">
<path d="M3.5 14.4934V15.875H6.2V14.525H9.8V15.875H12.5V14.4934C14.3988 14.2611 15.875 12.6417 15.875 10.6812V8H13.625V2.7125C13.625 1.28571 12.4642 0.125 11.0375 0.125C9.71065 0.125 8.61511 1.12936 8.46809 2.41759C7.43354 2.61971 6.65 3.53212 6.65 4.625V5.525H11.15V4.625C11.15 3.54776 10.3886 2.64594 9.37609 2.42677C9.51243 1.63215 10.2045 1.025 11.0375 1.025C11.968 1.025 12.725 1.78196 12.725 2.7125V8H0.125V10.6812C0.125 12.6417 1.60123 14.2611 3.5 14.4934ZM10.25 4.625H7.55C7.55 3.88057 8.15557 3.275 8.9 3.275C9.64443 3.275 10.25 3.88057 10.25 4.625ZM5.3 14.975H4.4V14.525H5.3V14.975ZM11.6 14.975H10.7V14.525H11.6V14.975ZM1.025 8.9H14.975V10.6812C14.975 12.3044 13.6544 13.625 12.0313 13.625H3.96868C2.34556 13.625 1.025 12.3044 1.025 10.6812V8.9Z" fill="#9C9C9C"/>
<path d="M10.5875 6.01013H9.6875V6.87503H10.5875V6.01013Z" fill="#9C9C9C"/>
<path d="M8.11289 6.01013H7.21289V6.87503H8.11289V6.01013Z" fill="#9C9C9C"/>
<path d="M9.35019 6.89258H8.4502V7.75748H9.35019V6.89258Z" fill="#9C9C9C"/>
</svg>
