<svg width="13" height="13" viewBox="0 0 15 15" fill="none" xmlns="http://www.w3.org/2000/svg">
<path d="M14.4643 7.77778H11.7857V5.55556C11.7857 5.40821 11.7293 5.26691 11.6288 5.16272C11.5283 5.05853 11.3921 5 11.25 5H3.75C3.60792 5 3.47166 5.05853 3.37119 5.16272C3.27073 5.26691 3.21429 5.40821 3.21429 5.55556V7.77778H0.535714C0.393634 7.77778 0.257373 7.83631 0.156907 7.9405C0.0564411 8.04468 0 8.18599 0 8.33333V12.7778C0 12.9251 0.0564411 13.0664 0.156907 13.1706C0.257373 13.2748 0.393634 13.3333 0.535714 13.3333H1.07143V14.4444C1.07143 14.5918 1.12787 14.7331 1.22834 14.8373C1.3288 14.9415 1.46506 15 1.60714 15C1.74922 15 1.88548 14.9415 1.98595 14.8373C2.08642 14.7331 2.14286 14.5918 2.14286 14.4444V13.3333H12.8571V14.4444C12.8571 14.5918 12.9136 14.7331 13.014 14.8373C13.1145 14.9415 13.2508 15 13.3929 15C13.5349 15 13.6712 14.9415 13.7717 14.8373C13.8721 14.7331 13.9286 14.5918 13.9286 14.4444V13.3333H14.4643C14.6064 13.3333 14.7426 13.2748 14.8431 13.1706C14.9436 13.0664 15 12.9251 15 12.7778V8.33333C15 8.18599 14.9436 8.04468 14.8431 7.9405C14.7426 7.83631 14.6064 7.77778 14.4643 7.77778ZM10.7143 7.77778H8.03571V6.11111H10.7143V7.77778ZM4.28571 6.11111H6.96429V7.77778H4.28571V6.11111ZM13.9286 12.2222H1.07143V8.88889H13.9286V12.2222Z" fill="#9C9C9C"/>
<path d="M0.625 7C0.79076 7 0.949731 6.93854 1.06694 6.82915C1.18415 6.71975 1.25 6.57138 1.25 6.41667V1.16667H13.75V6.41667C13.75 6.57138 13.8158 6.71975 13.9331 6.82915C14.0503 6.93854 14.2092 7 14.375 7C14.5408 7 14.6997 6.93854 14.8169 6.82915C14.9342 6.71975 15 6.57138 15 6.41667V0.583333C15 0.428624 14.9342 0.280251 14.8169 0.170854C14.6997 0.0614581 14.5408 0 14.375 0H0.625C0.45924 0 0.300269 0.0614581 0.183058 0.170854C0.0658481 0.280251 0 0.428624 0 0.583333V6.41667C0 6.57138 0.0658481 6.71975 0.183058 6.82915C0.300269 6.93854 0.45924 7 0.625 7Z" fill="#9C9C9C"/>
</svg>
