<svg width="20" height="20" viewBox="0 0 20 20" fill="none" xmlns="http://www.w3.org/2000/svg">
<path d="M9.296 13.008C9.936 13.008 10.536 12.784 11.096 12.336C11.672 11.888 12.088 11.264 12.344 10.464C12.376 9.888 12.408 9.448 12.44 9.144C12.184 7.464 11.32 6.624 9.848 6.624C9.016 6.624 8.328 6.976 7.784 7.68C7.24 8.384 6.968 9.24 6.968 10.248C6.968 11.08 7.184 11.752 7.616 12.264C8.048 12.76 8.608 13.008 9.296 13.008ZM13.256 16.368L13.16 18.216C12.088 18.76 10.68 19.032 8.936 19.032C6.328 19.032 4.256 18.208 2.72 16.56C1.2 14.928 0.44 12.84 0.44 10.296C0.44 7.432 1.448 5.048 3.464 3.144C5.48 1.24 7.92 0.287999 10.784 0.287999C13.248 0.287999 15.328 1.056 17.024 2.592C18.736 4.128 19.592 6.152 19.592 8.664C19.592 10.504 19.16 11.936 18.296 12.96C17.432 13.984 16.448 14.496 15.344 14.496C13.872 14.496 12.936 13.808 12.536 12.432C11.688 13.856 10.504 14.568 8.984 14.568C7.8 14.568 6.864 14.152 6.176 13.32C5.504 12.472 5.168 11.416 5.168 10.152C5.168 8.712 5.608 7.504 6.488 6.528C7.384 5.536 8.488 5.04 9.8 5.04C11.08 5.04 12.024 5.552 12.632 6.576C12.632 6.448 12.64 6.232 12.656 5.928C12.688 5.608 12.712 5.352 12.728 5.16H14.312L13.952 8.472C13.888 9.32 13.856 10.008 13.856 10.536C13.856 12.152 14.384 12.96 15.44 12.96C16.144 12.96 16.728 12.576 17.192 11.808C17.672 11.024 17.912 10.016 17.912 8.784C17.912 6.608 17.232 4.92 15.872 3.72C14.528 2.504 12.816 1.896 10.736 1.896C8.432 1.896 6.44 2.704 4.76 4.32C3.096 5.92 2.264 7.912 2.264 10.296C2.264 12.568 2.912 14.32 4.208 15.552C5.52 16.784 7.112 17.4 8.984 17.4C10.584 17.4 12.008 17.056 13.256 16.368Z" fill="black"/>
</svg>
