<svg width="432" height="161" viewBox="0 0 432 161" fill="none" xmlns="http://www.w3.org/2000/svg">
<path fill-rule="evenodd" clip-rule="evenodd" d="M164.62 32.2283C164.62 26.9418 163.433 22.7294 161.058 19.5632C158.684 16.3969 155.178 14.8137 150.513 14.8137C148.987 14.8137 147.573 14.8703 146.273 14.9834C144.972 15.0964 143.898 15.2378 143.05 15.3791L143.05 46.2221C144.124 46.9006 145.51 47.4943 147.234 47.9467C148.959 48.399 150.683 48.6251 152.464 48.6251C160.549 48.6251 164.62 43.169 164.62 32.2283ZM182.035 31.776C182.035 36.4406 181.469 40.6812 180.31 44.4977C179.151 48.3142 177.483 51.5935 175.278 54.364C173.073 57.1062 170.303 59.2548 167.023 60.7814C163.744 62.308 159.956 63.0713 155.687 63.0713C153.312 63.0713 151.107 62.8451 149.043 62.3928C146.98 61.9405 145.001 61.2902 143.078 60.4421L143.078 83.1433L126.003 83.1433L126.003 3.70342C127.53 3.25109 129.282 2.79885 131.289 2.37479C133.268 1.95073 135.36 1.58318 137.537 1.2722C139.714 0.961228 141.919 0.706767 144.181 0.537145C146.442 0.339252 148.591 0.25451 150.655 0.25451C155.63 0.25451 160.04 0.989478 163.942 2.48781C167.843 3.98614 171.123 6.07818 173.808 8.79214C176.494 11.5061 178.529 14.8138 179.943 18.7151C181.328 22.6164 182.035 26.97 182.035 31.776ZM211.38 50.0103C213.047 50.0103 214.659 49.9821 216.186 49.8973C217.712 49.8125 218.928 49.6994 219.861 49.558L219.861 36.6102C219.182 36.4689 218.136 36.2992 216.779 36.1579C215.394 36.0165 214.15 35.9317 212.991 35.9317C211.38 35.9317 209.881 36.0165 208.468 36.2144C207.054 36.4123 205.81 36.7798 204.736 37.317C203.662 37.8541 202.814 38.5891 202.22 39.4938C201.598 40.3984 201.315 41.5575 201.315 42.9427C201.315 45.6284 202.22 47.466 204.001 48.512C205.782 49.4732 208.241 50.0103 211.38 50.0103ZM209.994 0.0282984C215.026 0.0282985 219.239 0.593751 222.603 1.75284C225.967 2.91192 228.653 4.55158 230.688 6.67186C232.724 8.82041 234.137 11.4213 234.985 14.4745C235.833 17.5277 236.258 20.9201 236.258 24.6801L236.258 60.216C233.826 60.7531 230.405 61.375 226.052 62.1101C221.698 62.8451 216.412 63.2127 210.22 63.2127C206.319 63.2127 202.785 62.8734 199.619 62.1667C196.453 61.4882 193.711 60.3573 191.421 58.7742C189.131 57.2193 187.378 55.1556 186.162 52.6396C184.947 50.1235 184.325 47.0138 184.325 43.3669C184.325 39.8613 185.032 36.8647 186.445 34.4334C187.859 32.0022 189.753 30.0515 192.127 28.5814C194.502 27.1396 197.216 26.0654 200.269 25.4152C203.322 24.7649 206.489 24.454 209.796 24.454C212.001 24.454 213.98 24.5387 215.705 24.7366C217.429 24.9345 218.815 25.189 219.889 25.4717L219.889 23.8602C219.889 20.9484 219.013 18.6302 217.26 16.8774C215.507 15.1247 212.454 14.2483 208.1 14.2483C205.188 14.2483 202.333 14.4462 199.506 14.8703C196.679 15.2943 194.219 15.888 192.184 16.6513L190.007 2.88364C190.997 2.57266 192.24 2.2617 193.739 1.92245C195.237 1.58321 196.849 1.27221 198.601 1.01778C200.354 0.763346 202.22 0.50894 204.171 0.339318C206.036 0.113154 208.015 0.0282984 209.994 0.0282984ZM262.153 49.6711C265.291 49.6711 267.496 49.3601 268.797 48.7664C270.097 48.1728 270.747 46.9572 270.747 45.2044C270.747 43.8192 269.899 42.6318 268.231 41.5858C266.563 40.5681 263.991 39.3807 260.542 38.0802C257.856 37.0908 255.453 36.0448 253.276 34.9706C251.099 33.8963 249.234 32.6241 247.707 31.1257C246.18 29.6274 244.993 27.8464 244.145 25.7827C243.297 23.7189 242.873 21.2311 242.873 18.3193C242.873 12.6652 244.965 8.19848 249.177 4.91911C253.389 1.63974 259.157 6.81663e-07 266.479 7.19147e-07C270.154 7.37962e-07 273.659 0.311051 277.023 0.96127C280.388 1.61149 283.073 2.31825 285.052 3.08155L282.084 16.3686C280.105 15.6901 277.928 15.0682 275.61 14.531C273.292 13.9939 270.663 13.7395 267.751 13.7395C262.408 13.7395 259.722 15.2378 259.722 18.2061C259.722 18.8846 259.835 19.5067 260.061 20.0438C260.287 20.5809 260.74 21.0898 261.446 21.5986C262.125 22.1075 263.058 22.6164 264.245 23.2101C265.433 23.7755 266.931 24.4256 268.768 25.1041C272.5 26.4894 275.61 27.8464 278.041 29.1751C280.501 30.5038 282.423 31.9739 283.837 33.5287C285.25 35.0836 286.24 36.8364 286.805 38.7588C287.37 40.6812 287.653 42.8862 287.653 45.4023C287.653 51.3673 285.42 55.8624 280.953 58.9156C276.486 61.9688 270.154 63.4954 261.984 63.4954C256.64 63.4954 252.174 63.043 248.64 62.1101C245.078 61.2054 242.618 60.4421 241.233 59.8202L244.088 45.9394C247 47.0985 249.969 47.9749 253.022 48.6251C256.16 49.3319 259.185 49.6711 262.153 49.6711ZM349.961 31.6629C349.961 36.4123 349.283 40.7377 347.897 44.6673C346.512 48.5969 344.533 51.9611 341.932 54.7598C339.331 57.5586 336.222 59.7071 332.603 61.2337C328.984 62.7603 324.914 63.5236 320.39 63.5236C315.952 63.5236 311.937 62.7603 308.29 61.2337C304.672 59.7071 301.534 57.5586 298.961 54.7598C296.36 51.9611 294.325 48.5969 292.883 44.6673C291.441 40.7377 290.706 36.384 290.706 31.6629C290.706 26.9135 291.441 22.6164 292.94 18.7151C294.438 14.8138 296.502 11.5061 299.131 8.73563C301.76 5.9934 304.898 3.8448 308.517 2.31819C312.135 0.791593 316.093 0.028299 320.39 0.028299C324.744 0.028299 328.73 0.791593 332.377 2.31819C335.996 3.8448 339.133 5.9934 341.706 8.73563C344.307 11.4779 346.342 14.8138 347.784 18.7151C349.226 22.6164 349.961 26.9135 349.961 31.6629ZM332.547 31.6629C332.547 26.4046 331.5 22.2489 329.408 19.2239C327.316 16.199 324.32 14.7006 320.418 14.7006C316.517 14.7006 313.492 16.199 311.372 19.2239C309.223 22.2489 308.149 26.3763 308.149 31.6629C308.149 36.9495 309.223 41.1335 311.372 44.215C313.521 47.2964 316.517 48.8513 320.418 48.8513C324.32 48.8513 327.316 47.2964 329.408 44.215C331.472 41.1052 332.547 36.9212 332.547 31.6629Z" fill="black"/>
<path fill-rule="evenodd" clip-rule="evenodd" d="M276.908 109.407C276.908 104.148 275.721 99.9078 273.346 96.7415C270.972 93.5753 267.466 91.9921 262.801 91.9921C261.275 91.9921 259.861 92.0487 258.561 92.1617C257.26 92.2748 256.186 92.4162 255.366 92.5576L255.366 123.401C256.441 124.079 257.826 124.673 259.55 125.125C261.275 125.577 262.999 125.804 264.78 125.804C272.866 125.804 276.908 120.347 276.908 109.407ZM294.323 108.954C294.323 113.619 293.758 117.86 292.598 121.676C291.439 125.493 289.771 128.772 287.566 131.542C285.361 134.285 282.591 136.433 279.311 137.96C276.032 139.486 272.244 140.25 267.975 140.25C265.6 140.25 263.395 140.024 261.331 139.571C259.268 139.119 257.289 138.469 255.366 137.621L255.366 160.322L238.291 160.322L238.291 80.8819C239.818 80.4296 241.57 79.9772 243.578 79.5532C245.556 79.1291 247.648 78.7616 249.825 78.4506C252.002 78.1396 254.207 77.8852 256.469 77.7156C258.73 77.5177 260.879 77.4329 262.943 77.4329C267.918 77.4329 272.329 78.1679 276.23 79.6663C280.131 81.1646 283.411 83.2566 286.096 85.9705C288.782 88.6845 290.817 91.9921 292.231 95.8935C293.616 99.7665 294.323 104.148 294.323 108.954ZM317.731 139.091L300.656 139.091L300.656 78.7899L317.731 78.7899L317.731 139.091ZM344.192 126.821C347.33 126.821 349.535 126.51 350.835 125.917C352.136 125.295 352.786 124.107 352.786 122.355C352.786 120.969 351.938 119.782 350.27 118.736C348.602 117.69 346.029 116.531 342.58 115.23C339.895 114.241 337.492 113.195 335.315 112.149C333.138 111.075 331.272 109.802 329.746 108.304C328.219 106.806 327.032 105.025 326.184 102.961C325.336 100.897 324.911 98.4095 324.911 95.4976C324.911 89.8436 327.004 85.3769 331.216 82.0975C335.428 78.8181 341.195 77.1785 348.517 77.1785C352.192 77.1785 355.698 77.5177 359.062 78.1397C362.426 78.7899 365.112 79.4966 367.091 80.2599L364.123 93.5471C362.144 92.8686 359.967 92.2465 357.649 91.7094C355.33 91.1723 352.701 90.9178 349.789 90.9178C344.446 90.9178 341.761 92.4162 341.761 95.3846C341.761 96.0631 341.874 96.685 342.1 97.2222C342.326 97.7593 342.778 98.2681 343.485 98.777C344.164 99.2859 345.097 99.823 346.284 100.388C347.471 100.954 348.97 101.604 350.807 102.283C354.539 103.668 357.649 105.025 360.08 106.354C362.539 107.682 364.462 109.152 365.875 110.707C367.289 112.262 368.278 114.015 368.844 115.909C369.409 117.831 369.692 120.036 369.692 122.552C369.692 128.517 367.458 133.012 362.992 136.066C358.525 139.119 352.192 140.645 344.022 140.645C338.679 140.645 334.212 140.193 330.679 139.26C327.117 138.356 324.657 137.592 323.272 136.97L326.127 123.09C329.039 124.249 332.007 125.125 335.061 125.775C338.199 126.51 341.224 126.821 344.192 126.821ZM432 108.841C432 113.591 431.321 117.916 429.936 121.846C428.551 125.775 426.572 129.139 423.971 131.938C421.37 134.737 418.26 136.886 414.642 138.412C411.023 139.939 406.952 140.702 402.429 140.702C397.991 140.702 393.976 139.939 390.329 138.412C386.711 136.886 383.573 134.737 381 131.938C378.399 129.139 376.364 125.775 374.922 121.846C373.48 117.916 372.745 113.562 372.745 108.841C372.745 104.092 373.48 99.7948 374.978 95.8935C376.477 91.9921 378.541 88.6845 381.17 85.914C383.799 83.1718 386.937 81.0233 390.555 79.4967C394.174 77.9701 398.132 77.2067 402.429 77.2067C406.783 77.2067 410.769 77.9701 414.416 79.4967C418.034 81.0233 421.172 83.1718 423.745 85.914C426.346 88.6562 428.381 91.9921 429.823 95.8935C431.265 99.7665 432 104.092 432 108.841ZM414.585 108.841C414.585 103.583 413.539 99.4272 411.419 96.4023C409.327 93.3774 406.33 91.879 402.429 91.879C398.528 91.879 395.503 93.3774 393.382 96.4023C391.234 99.4272 390.16 103.555 390.16 108.841C390.16 114.128 391.234 118.312 393.382 121.393C395.531 124.475 398.528 126.03 402.429 126.03C406.33 126.03 409.327 124.475 411.419 121.393C413.539 118.284 414.585 114.1 414.585 108.841Z" fill="#E3000F"/>
<path fill-rule="evenodd" clip-rule="evenodd" d="M192.099 129.167C193.767 129.167 195.378 129.139 196.905 129.054C198.431 128.969 199.647 128.856 200.58 128.715L200.58 115.767C199.901 115.626 198.855 115.456 197.47 115.315C196.085 115.173 194.841 115.089 193.682 115.089C192.07 115.089 190.572 115.173 189.159 115.371C187.745 115.569 186.501 115.937 185.427 116.474C184.353 117.011 183.505 117.746 182.911 118.651C182.289 119.555 182.006 120.714 182.006 122.1C182.006 124.785 182.911 126.623 184.692 127.669C186.501 128.658 188.961 129.167 192.099 129.167ZM190.713 79.1851C195.746 79.1851 199.958 79.7505 203.322 80.9096C206.686 82.0687 209.372 83.7083 211.407 85.8286C213.443 87.9772 214.856 90.5781 215.704 93.6313C216.553 96.6845 216.977 100.077 216.977 103.837L216.977 139.373C214.545 139.91 211.125 140.532 206.771 141.267C202.417 142.002 197.131 142.369 190.94 142.369C187.038 142.369 183.505 142.03 180.338 141.323C177.172 140.645 174.43 139.514 172.14 137.931C169.85 136.376 168.097 134.312 166.882 131.796C165.666 129.28 165.044 126.171 165.044 122.524C165.044 119.018 165.751 116.021 167.164 113.59C168.578 111.159 170.472 109.208 172.847 107.738C175.221 106.296 177.935 105.222 180.988 104.6C184.042 103.95 187.208 103.611 190.516 103.611C192.721 103.611 194.7 103.695 196.424 103.893C198.149 104.091 199.534 104.346 200.608 104.628L200.608 103.017C200.608 100.105 199.732 97.787 197.979 96.0342C196.226 94.2814 193.173 93.4051 188.819 93.4051C185.908 93.4051 183.052 93.603 180.225 94.027C177.398 94.4511 174.939 95.0448 172.903 95.8081L170.726 82.0404C171.716 81.7294 172.96 81.4185 174.458 81.0792C175.956 80.74 177.568 80.429 179.32 80.1745C181.073 79.9201 182.939 79.6657 184.89 79.4961C186.756 79.2699 188.735 79.1851 190.713 79.1851Z" fill="black"/>
<path d="M145.451 101.463L99.5117 101.463L99.5117 147.402L145.451 147.402L145.451 101.463Z" fill="black"/>
<path d="M45.9951 101.463L0.0556641 101.463L0.0556643 147.402L45.9951 147.402L45.9951 101.463Z" fill="black"/>
<path d="M45.9394 51.7349L0 51.7349L2.66391e-07 97.6743L45.9394 97.6743L45.9394 51.7349Z" fill="black"/>
<path d="M45.9677 1.92285L0.0283203 1.92285L0.0283206 47.8623L45.9677 47.8623L45.9677 1.92285Z" fill="black"/>
<path d="M95.8076 101.463L49.8682 101.463L49.8682 147.402L95.8076 147.402L95.8076 101.463Z" fill="black"/>
<path d="M95.8378 51.7349L49.8984 51.7349L49.8984 97.6743L95.8378 97.6743L95.8378 51.7349Z" fill="black"/>
</svg>
