<svg width="13" height="13" viewBox="0 0 13 13" fill="none" xmlns="http://www.w3.org/2000/svg">
<g clipPath="url(#clip0)">
<path d="M0.650152 0.112582C0.41115 -0.126394 0 0.0427832 0 0.381875V12.6198C0 12.8301 0.170523 13.0007 0.380859 13.0007H12.6188C12.9569 13.0007 13.1277 12.5901 12.8881 12.3505L0.650152 0.112582ZM10.037 12.2389V11.7058C10.037 11.4954 9.86649 11.3249 9.65616 11.3249C9.44582 11.3249 9.2753 11.4954 9.2753 11.7058V12.2389H7.79154V11.7058C7.79154 11.4954 7.62102 11.3249 7.41069 11.3249C7.20035 11.3249 7.02983 11.4954 7.02983 11.7058V12.2389H5.54607V11.7058C5.54607 11.4954 5.37555 11.3249 5.16521 11.3249C4.95488 11.3249 4.78436 11.4954 4.78436 11.7058V12.2389H3.3006V11.7058C3.3006 11.4954 3.13008 11.3249 2.91974 11.3249C2.70941 11.3249 2.53888 11.4954 2.53888 11.7058V12.2389H0.761693V10.4616H1.29487C1.50521 10.4616 1.67573 10.2911 1.67573 10.0808C1.67573 9.87045 1.50521 9.69993 1.29487 9.69993H0.761693V8.21618H1.29487C1.50521 8.21618 1.67573 8.04565 1.67573 7.83532C1.67573 7.62498 1.50521 7.45446 1.29487 7.45446H0.761693V5.97071H1.29487C1.50521 5.97071 1.67573 5.80018 1.67573 5.58985C1.67573 5.37951 1.50521 5.20899 1.29487 5.20899H0.761693V3.72524H1.29487C1.50521 3.72524 1.67573 3.55471 1.67573 3.34438C1.67573 3.13404 1.50521 2.96352 1.29487 2.96352H0.761693V1.30132L11.6993 12.2389H10.037Z" fill="#9C9C9C"/>
<path d="M2.91992 10.4609H6.48918C6.82734 10.4609 6.99811 10.0504 6.75848 9.81077L3.18921 6.24151C2.94932 6.00157 2.53906 6.17306 2.53906 6.5108V10.0801C2.53906 10.2904 2.70959 10.4609 2.91992 10.4609ZM3.30076 7.43025L5.56974 9.69923H3.30076V7.43025Z" fill="#9C9C9C"/>
<path d="M10.5229 7.88C10.6716 8.02872 10.9128 8.02874 11.0615 7.88L12.8884 6.0531C13.0371 5.90436 13.0371 5.66323 12.8884 5.51451L7.48583 0.11192C7.33712 -0.0368184 7.09596 -0.0368184 6.94725 0.11192L5.12034 1.93883C4.9716 2.08756 4.9716 2.3287 5.12034 2.47741L10.5229 7.88ZM7.21652 0.919824L12.0805 5.78381L10.7922 7.0721L10.0428 6.3227L10.4198 5.94567C10.5686 5.79693 10.5686 5.5558 10.4198 5.40706C10.2711 5.25835 10.03 5.25832 9.88121 5.40706L9.50416 5.78411L8.62948 4.90943L9.00651 4.5324C9.15524 4.38366 9.15524 4.14253 9.00651 3.99382C8.85779 3.84508 8.61663 3.84508 8.46792 3.99382L8.09089 4.37084L7.21621 3.49616L7.59326 3.11911C7.74198 2.97037 7.74198 2.72924 7.59326 2.5805C7.44455 2.43179 7.20339 2.43176 7.05465 2.5805L6.67763 2.95752L5.92822 2.20812L7.21652 0.919824Z" fill="#9C9C9C"/>
</g>
<defs>
<clipPath id="clip0">
<rect width="13" height="13" fill="white"/>
</clipPath>
</defs>
</svg>
