<svg width="20" height="20" viewBox="0 0 20 20" fill="none" xmlns="http://www.w3.org/2000/svg">
<path d="M19.8996 9.83447C19.8996 15.1613 15.5482 19.4795 10.1796 19.4795C8.53724 19.4821 6.92092 19.0693 5.48103 18.2794L0.0996094 19.9895L1.85411 14.8146C0.939666 13.3146 0.457009 11.5913 0.459309 9.83447C0.459309 4.50761 4.81113 0.189453 10.1798 0.189453C15.5487 0.189453 19.8996 4.50761 19.8996 9.83447ZM10.1796 1.72549C5.67309 1.72549 2.00745 5.36319 2.00745 9.83447C2.00745 11.609 2.58583 13.2522 3.56417 14.5889L2.54315 17.6003L5.68365 16.6021C7.0189 17.4794 8.58214 17.9457 10.1798 17.9435C14.6856 17.9435 18.3519 14.3062 18.3519 9.83469C18.3517 5.36341 14.6858 1.72549 10.1796 1.72549ZM15.088 12.0558C15.0279 11.9575 14.8693 11.8981 14.6313 11.7799C14.3928 11.6618 13.2211 11.0896 13.0033 11.0113C12.7848 10.9323 12.6255 10.8927 12.4669 11.1292C12.3083 11.3659 11.8516 11.8981 11.7123 12.0558C11.5733 12.214 11.4344 12.2338 11.196 12.1154C10.9579 11.9973 10.1903 11.7474 9.28021 10.942C8.57203 10.3156 8.09375 9.54187 7.95471 9.30515C7.81589 9.06865 7.94019 8.94083 8.05921 8.82313C8.16657 8.71709 8.29769 8.54703 8.41671 8.40909C8.53617 8.27093 8.57577 8.17259 8.65475 8.01463C8.73461 7.85689 8.69479 7.71895 8.63495 7.60037C8.57555 7.48223 8.09859 6.31887 7.90015 5.84565C7.70171 5.37243 7.50349 5.45119 7.36423 5.45119C7.22541 5.45119 7.06635 5.43139 6.90751 5.43139C6.74867 5.43139 6.49039 5.49057 6.27193 5.72707C6.05369 5.96379 5.43835 6.53579 5.43835 7.69893C5.43835 8.86229 6.29173 9.98627 6.41119 10.144C6.53021 10.3015 8.05899 12.7664 10.4812 13.7131C12.9036 14.6591 12.9036 14.3434 13.3405 14.3038C13.777 14.2644 14.7498 13.732 14.9492 13.1802C15.1472 12.6276 15.1472 12.1544 15.088 12.0558Z" fill="black"/>
</svg>
